<?xml version="1.0" encoding="utf-8"?>
<!-- Generator: Adobe Illustrator 16.0.3, SVG Export Plug-In . SVG Version: 6.00 Build 0)  -->
<!DOCTYPE svg PUBLIC "-//W3C//DTD SVG 1.1//EN" "http://www.w3.org/Graphics/SVG/1.1/DTD/svg11.dtd">
<svg version="1.1" id="Capa_1" xmlns="http://www.w3.org/2000/svg" xmlns:xlink="http://www.w3.org/1999/xlink" x="0px" y="0px"
	 width="1575px" height="400px" viewBox="0 0 1575 400" enable-background="new 0 0 1575 400" xml:space="preserve">
<g>
	<path fill-rule="evenodd" clip-rule="evenodd" d="M136.167,135.625c37.398,1.017,69.309,15.374,97.021,40.059
		c4.103,3.655,4.382,6.158-0.236,9.914c-8.034,6.535-15.633,13.639-23.073,20.858c-3.026,2.937-4.307,2.376-6.725-0.653
		c-30.498-38.223-102.94-38.734-135.827,0.455c-28.861,34.395-24.361,110.782,42.786,127.896
		c17.945,4.573,36.093,5.687,54.174,0.256c14.92-4.481,27.318-12.721,36.376-25.445c2.585-3.631,3.884-2.523,6.243-0.143
		c7.036,7.104,14.044,14.259,21.484,20.922c3.408,3.053,3.169,4.922,0.304,8.004c-18.859,20.289-41.757,33.824-69.073,37.954
		c-40.09,6.063-77.551-1.872-109.987-26.998C17.267,323.63,3.934,289.445,5.023,249.009c1.38-51.218,35.453-93.136,87.533-107.149
		c6.714-1.806,13.558-3.24,20.423-4.355C120.607,136.265,128.333,135.689,136.167,135.625z"/>
	<path fill-rule="evenodd" clip-rule="evenodd" d="M1529.951,226.855c0-25.799,0.127-50.7-0.111-75.596
		c-0.046-4.727,1.237-6.103,5.959-5.94c10.364,0.356,20.751,0.183,31.126,0.067c3.193-0.035,4.267,0.369,4.211,4.324
		c-0.28,19.602-0.072,39.212,0.127,58.822c0.532,52.821,0.323,105.65,0.494,158.475c0.009,2.658-0.609,3.655-3.399,3.646
		c-11.654-0.027-23.302-0.074-34.943-0.786c-2.719-0.167-2.945-1.648-2.929-3.717c0.039-4.674,0.013-9.351,0.013-13.828
		c-1.544-0.904-2.094,0.127-2.692,0.708c-17.94,17.427-39.967,21.773-63.788,19.297c-43.669-4.54-70.611-39.094-69.39-84.761
		c0.336-12.568,2.068-24.778,7.131-36.341c9.228-21.078,24.661-35.521,46.896-41.785c23.562-6.639,46.615-5.615,68.113,7.421
		C1521.194,219.546,1525.078,223.124,1529.951,226.855z M1529.357,292.569c0-5.277,0.091-10.556-0.018-15.83
		c-0.222-10.621-4.172-19.197-13.377-25.195c-7.797-5.083-16.345-7.422-25.445-8.435c-19.428-2.165-39.039,6.929-47.491,22.149
		c-9.208,16.581-7.394,41.282,4.083,55.547c16.09,19.992,54.268,21.926,73.615,3.844c5.924-5.538,10.025-11.523,8.73-20.224
		C1528.88,300.555,1529.357,296.525,1529.357,292.569z"/>
	<path fill-rule="evenodd" clip-rule="evenodd" d="M546.8,257.851c0-37.357,0.115-74.715-0.133-112.07
		c-0.034-5.17,1.494-6.18,6.337-6.143c24.156,0.184,48.316-0.172,72.474-0.04c14.708,0.081,28.958,2.523,41.433,11.075
		c12.28,8.417,18.529,20.641,20.799,34.954c2.348,14.812,2.991,29.948-0.843,44.399c-6.543,24.662-22.45,41.149-47.717,47.027
		c-10.496,2.442-21.449,0.721-32.18,0.533c-13.454-0.234-13.446-0.504-13.383,12.937c0.124,26.605,0.169,53.212,0.442,79.815
		c0.042,4.157-0.634,5.984-5.458,5.85c-11.878-0.328-23.781-0.183-35.661,0.185c-4.238,0.132-5.314-1.017-5.293-5.271
		c0.179-37.75,0.104-75.5,0.104-113.251C547.415,257.851,547.108,257.851,546.8,257.851z M593.032,208.252c0.047,0,0.095,0,0.142,0
		c0,6.787,0.026,13.573-0.016,20.359c-0.014,2.207-0.1,4.121,3.087,4.05c10.739-0.241,21.527,0.25,32.21-0.609
		c12.622-1.015,18.496-6.817,19.51-17.93c0.357-3.904,0.2-7.93-0.303-11.825c-1.32-10.227-6.296-15.466-16.332-17.427
		c-11.77-2.3-23.69-0.655-35.528-1.175c-2.934-0.129-2.79,1.661-2.781,3.635C593.05,194.304,593.032,201.277,593.032,208.252z"/>
	<path fill-rule="evenodd" clip-rule="evenodd" d="M801.459,375.299c-34.792,0.03-58.517-15.231-75.436-42.332
		c-6.988-11.192-7.043-11.167,4.351-17.936c7.13-4.234,14.42-8.225,21.35-12.768c3.338-2.189,4.592-1.316,6.23,1.785
		c5.381,10.189,11.311,19.999,19.798,28.052c11.992,11.379,24.604,12.645,37.218,3.478c11.872-8.627,15.973-24.631,9.289-37.841
		c-6.756-13.354-18.403-22.291-29.688-31.418c-14.504-11.731-30.428-21.704-43.526-35.177
		c-21.433-22.051-22.539-55.508-1.843-77.685c14.426-15.458,33.272-20.683,53.934-20.093c29.828,0.85,49.886,17.765,66.375,40.547
		c1.569,2.167,0.334,2.934-1.088,3.992c-9.377,6.988-18.81,13.905-28.071,21.043c-2.262,1.743-3.304,1.313-4.881-0.742
		c-4.132-5.385-8.393-10.679-12.804-15.837c-2.317-2.71-4.909-5.235-7.639-7.535c-8.751-7.375-18.28-8.58-25.941-3.486
		c-8.232,5.474-11.533,16.078-8.316,26.67c2.77,9.117,9.088,15.511,16.393,21.048c13.522,10.252,27.435,20.016,40.652,30.645
		c12.392,9.963,23.582,21.211,30.289,36.078c13.61,30.173,1.022,63.708-30.201,80.393
		C825.836,372.632,812.876,375.378,801.459,375.299z"/>
	<path fill-rule="evenodd" clip-rule="evenodd" d="M1044.031,230.237c0-6.834,0.164-11.907-0.068-16.961
		c-0.122-2.603,0.364-3.733,3.248-3.699c10.754,0.13,21.51,0.101,32.262,0.021c2.476-0.019,3.438,0.98,3.23,3.35
		c-0.049,0.561-0.003,1.131,0,1.696c0.254,50.549,0.444,101.097,0.871,151.644c0.04,4.699-1.13,6.106-5.891,5.938
		c-9.985-0.355-19.999-0.22-29.989,0.084c-2.83,0.086-3.137-0.995-3.119-3.171c0.044-5.245,0.015-10.492,0.015-16.954
		c-2.567,2.377-4.34,4.11-6.209,5.732c-39.657,34.375-104.122,15.308-118.901-35.712c-8.222-28.379-7.018-56.582,9.472-82.172
		c15.945-24.745,40.028-33.617,68.609-32.01C1015.418,209.025,1030.678,215.871,1044.031,230.237z M956.39,292.657
		c0.063,1.465,0.113,3.921,0.29,6.365c1.345,18.673,12.839,33.566,29.824,38.689c30.302,9.137,57.562-8.992,60.198-41.39
		c3.129-38.435-26.43-58.989-58.953-50.822C967.797,250.51,956.335,267.754,956.39,292.657z"/>
	<path fill-rule="evenodd" clip-rule="evenodd" d="M434.436,376.673c-21.694,0-43.39-0.13-65.083,0.105
		c-4.533,0.05-5.819-1.299-5.619-5.714c0.343-7.531,0.259-15.096,0.024-22.636c-0.113-3.621,0.88-4.938,4.719-4.887
		c12.447,0.163,24.901-0.187,37.35-0.039c3.636,0.042,4.806-0.878,4.786-4.673c-0.222-40.186-0.311-80.371-0.266-120.557
		c0.004-3.996-1.23-5.12-5.146-5.048c-12.449,0.229-24.91-0.101-37.355,0.207c-3.681,0.091-4.973-0.567-4.828-4.438
		c0.282-7.537,0.311-15.101-0.009-22.635c-0.174-4.103,0.833-5.424,5.219-5.422c40.744,0.013,81.489-0.241,122.233-0.4
		c4.499-0.018,10.441-1.667,13.124,0.56c3.2,2.657,0.829,8.824,1.051,13.458c0.216,4.518-0.302,9.09,0.144,13.574
		c0.453,4.542-1.434,5.209-5.419,5.127c-12.071-0.247-24.157,0.134-36.223-0.204c-4.433-0.125-5.216,1.342-5.194,5.414
		c0.219,39.996,0.295,79.995,0.204,119.991c-0.01,4.129,1.312,4.978,5.135,4.906c12.449-0.229,24.907,0.026,37.357-0.157
		c3.414-0.05,4.63,0.856,4.523,4.412c-0.244,8.106-0.25,16.23,0.003,24.337c0.112,3.564-1.11,4.418-4.506,4.396
		c-22.074-0.137-44.15-0.07-66.225-0.07C434.436,376.412,434.436,376.543,434.436,376.673z"/>
	<path fill-rule="evenodd" clip-rule="evenodd" d="M1212.444,266.814c0-18.31,0.085-36.621-0.071-54.929
		c-0.031-3.608,0.901-4.94,4.706-4.835c9.243,0.256,18.504,0.299,27.741-0.016c4.22-0.143,5.406,1.057,5.389,5.332
		c-0.118,28.689,0.044,57.379,0.132,86.067c0.018,5.867,0.571,11.694,2.367,17.302c5.15,16.089,20.699,25.531,37.613,22.953
		c18.099-2.758,28.516-14.562,28.655-33.568c0.222-30.576,0.11-61.156-0.188-91.732c-0.051-5.278,0.983-7.265,6.695-6.941
		c8.649,0.486,17.356,0.104,26.03-0.135c3.141-0.086,4.367,0.838,4.217,4.11c-0.23,5.085-0.086,10.19-0.057,15.286
		c0.174,29.625-0.126,59.259,0.672,88.867c0.811,30.082-16.872,46.083-37.48,52.937c-27.719,9.217-55.019,8.879-80.576-6.749
		c-17.062-10.432-26.722-25.373-25.836-46.391c0.669-15.828,0.133-31.704,0.133-47.559
		C1212.538,266.814,1212.491,266.814,1212.444,266.814z"/>
	<path fill-rule="evenodd" clip-rule="evenodd" d="M324.736,258.89c0,37.549-0.065,75.101,0.089,112.65
		c0.018,4.296-0.901,5.89-5.545,5.752c-11.689-0.347-23.399-0.265-35.094-0.029c-3.886,0.076-5.231-0.949-5.138-5.002
		c0.22-9.615-0.088-19.239-0.126-28.859c-0.265-67.353-0.456-134.705-0.888-202.056c-0.033-5.14,1.23-6.652,6.435-6.463
		c11.496,0.417,23.019,0.229,34.528,0.068c3.405-0.046,4.771,0.564,4.972,4.527c0.791,15.656,0.284,31.307,0.367,46.958
		c0.129,24.151,0.034,48.302,0.034,72.455C324.491,258.89,324.614,258.89,324.736,258.89z"/>
	<path fill-rule="evenodd" clip-rule="evenodd" d="M1127.269,260.835c0-36.019,0.065-72.036-0.087-108.053
		c-0.018-4.278,0.903-5.916,5.556-5.791c12.248,0.33,24.517,0.269,36.77,0.023c4.055-0.081,5.06,1.292,5.026,5.161
		c-0.104,12.245,0.25,24.497,0.331,36.737c0.395,59.588,0.298,119.179,0.61,178.769c0.027,5.189-1.32,6.604-6.478,6.45
		c-12.057-0.355-24.141-0.235-36.2,0.12c-4.33,0.129-5.274-1.202-5.256-5.359c0.167-36.019,0.097-72.039,0.097-108.058
		C1127.515,260.835,1127.393,260.835,1127.269,260.835z"/>
	<path fill-rule="evenodd" clip-rule="evenodd" d="M501.441,95.407c-0.094,51.269-45.018,81.115-85.667,64.025
		c-2.79-1.173-4.761-1.399-7.649,0.337c-11.111,6.681-23.643,2.761-27.394-9.604c-2.853-9.407-7.737-17.148-12.987-25.134
		c-9.809-14.922-10.961-31.492-6.479-48.398c3.526-13.306,8.402-26.177,15.528-38.062c4.12-6.872,9.576-12.478,15.854-17.498
		c7.318-5.852,15.119-6.986,23.881-4.459c8.41,2.425,16.265,6.027,23.404,11.02c3.386,2.368,6.024,2.351,8.99-0.474
		c2.587-2.463,5.262-4.939,8.677-6.244c6.532-2.495,10.678,0.414,11.021,7.362c0.212,4.308-1.016,8.254-2.719,12.006
		c-1.55,3.417-1.401,5.031,2.401,7.121C489.952,59.306,500.957,77.859,501.441,95.407z M377.606,47.574
		c0.37,0.262,0.74,0.525,1.11,0.787c-19.457,22.465-22.845,54.61-7.449,77.426c4.835,7.167,10.003,13.806,11.378,22.657
		c0.357,2.296,1.929,4.483,3.228,6.54c3.648,5.777,9.417,5.554,15.149,4.908c4.982-0.561,8.987-2.839,10.867-7.781
		c2.666-7.004,2.998-14.168-0.759-20.752c-2.076-3.642-1.346-6.009,0.728-9.122c14.098-21.17,28.079-42.42,42-63.707
		c5.389-8.238,9.582-17.095,11.972-26.669c0.759-3.035,1.21-6.734-1.982-8.782c-3.238-2.078-6.076,0.143-8.693,2.039
		c-1.066,0.771-2.071,1.633-3.082,2.479c-6.623,5.537-7.685,5.584-14.806,1.03c-6.693-4.281-13.763-7.807-21.477-9.836
		c-5.527-1.454-11.113-2.41-16.465,0.738c-10.75,6.326-18.354,15.52-23.821,26.55C374.12,48.874,376.713,47.313,377.606,47.574z"/>
	<path fill-rule="evenodd" clip-rule="evenodd" fill="#FFFFFF" d="M377.606,47.574c-0.893-0.26-3.486,1.3-2.101-1.495
		c5.467-11.03,13.071-20.225,23.821-26.55c5.352-3.148,10.938-2.192,16.465-0.738c7.714,2.029,14.784,5.555,21.477,9.836
		c7.121,4.554,8.183,4.506,14.806-1.03c1.011-0.846,2.016-1.708,3.082-2.479c2.617-1.896,5.455-4.117,8.693-2.039
		c3.192,2.048,2.741,5.747,1.982,8.782c-2.391,9.574-6.583,18.431-11.972,26.669c-13.921,21.287-27.902,42.537-42,63.707
		c-2.074,3.113-2.804,5.48-0.728,9.122c3.757,6.584,3.424,13.749,0.759,20.752c-1.88,4.941-5.885,7.22-10.867,7.781
		c-5.732,0.646-11.501,0.869-15.149-4.908c-1.299-2.057-2.871-4.243-3.228-6.54c-1.375-8.851-6.542-15.49-11.378-22.657
		c-15.396-22.816-12.008-54.961,7.446-77.426c0.159-0.458,0.586-1.18,0.437-1.33C378.403,46.275,377.978,46.95,377.606,47.574z
		 M391.469,38.792c-1.035-0.191-2.155-0.558-2.287,1.11c-1.642-0.438-2.752,0.193-3.97,2.485c1.967-0.784,3.29-0.993,3.927-2.531
		c0.987,0.077,1.874-0.039,2.235-1.164c1.015,0.141,1.892,0.001,2.289-1.12c4.05-1.132,8.225-1.436,12.401-1.727
		c-4.163,0.245-8.779-2.316-12.318,1.834C392.713,37.49,391.561,37.057,391.469,38.792z M382.542,44.604
		c1.064-0.247,2.535-1.273,2.123-1.781c-1.199-1.475-1.92,0.407-2.833,0.953c-0.64,0.484-2.036,0.973-1.468,1.702
		C381.358,46.754,381.954,45.323,382.542,44.604z M411.569,140.533c-0.164-0.631-0.433-2.308-1.029-3.859
		c-2.378-6.183-5.153-6.71-9.592-1.869c-3.854,4.201-6.518,9.109-8.345,14.478c-1.411,4.141-0.564,6.717,4.409,7.432
		C404.969,157.856,411.786,150.984,411.569,140.533z M423.438,88.879c-2.386,0.075-2.536,1.637-3.16,2.642
		c-4.071,6.558-7.906,13.271-12.153,19.711c-5.293,8.026-11.001,15.765-18.014,22.436c-1.853,1.763-3.865,4.236-1.797,6.287
		c2.456,2.436,4.435-0.752,5.95-2.305c2.616-2.682,4.975-5.671,7.111-8.759C410.015,116.39,417.172,103.078,423.438,88.879z"/>
	<path fill-rule="evenodd" clip-rule="evenodd" d="M411.569,140.533c0.217,10.452-6.6,17.324-14.557,16.181
		c-4.973-0.715-5.82-3.291-4.409-7.432c1.827-5.368,4.491-10.277,8.345-14.478c4.439-4.841,7.214-4.314,9.592,1.869
		C411.136,138.225,411.405,139.902,411.569,140.533z"/>
	<path fill-rule="evenodd" clip-rule="evenodd" d="M423.438,88.879c-6.265,14.199-13.423,27.511-22.064,40.011
		c-2.136,3.088-4.495,6.077-7.111,8.759c-1.515,1.552-3.494,4.74-5.95,2.305c-2.067-2.051-0.056-4.524,1.797-6.287
		c7.013-6.67,12.721-14.409,18.014-22.436c4.248-6.44,8.082-13.153,12.153-19.711C420.901,90.516,421.051,88.954,423.438,88.879z"/>
	<path fill-rule="evenodd" clip-rule="evenodd" d="M393.747,37.68c3.538-4.151,8.154-1.59,12.317-1.835
		c-4.176,0.291-8.351,0.595-12.401,1.727L393.747,37.68z"/>
	<path fill-rule="evenodd" clip-rule="evenodd" d="M389.139,39.855c-0.637,1.538-1.959,1.747-3.927,2.531
		c1.217-2.292,2.328-2.922,3.97-2.485L389.139,39.855z"/>
	<path fill-rule="evenodd" clip-rule="evenodd" d="M381.83,43.774c0.915-0.544,1.636-2.426,2.835-0.951
		c0.412,0.508-1.059,1.534-2.123,1.781C382.307,44.326,382.069,44.048,381.83,43.774z"/>
	<path fill-rule="evenodd" clip-rule="evenodd" d="M389.182,39.901c0.132-1.668,1.252-1.301,2.287-1.11c0,0-0.095-0.1-0.095-0.1
		c-0.36,1.125-1.247,1.241-2.234,1.164L389.182,39.901z"/>
	<path fill-rule="evenodd" clip-rule="evenodd" d="M393.663,37.571c-0.397,1.121-1.274,1.261-2.289,1.12c0,0,0.095,0.1,0.095,0.1
		c0.093-1.734,1.245-1.301,2.278-1.112C393.747,37.68,393.663,37.571,393.663,37.571z"/>
	<path fill-rule="evenodd" clip-rule="evenodd" d="M382.542,44.604c-0.587,0.719-1.183,2.15-2.178,0.875
		c-0.567-0.729,0.829-1.218,1.467-1.703C382.069,44.048,382.307,44.326,382.542,44.604z"/>
	<path fill-rule="evenodd" clip-rule="evenodd" d="M377.606,47.574c0.371-0.624,0.797-1.298,1.544-0.543
		c0.149,0.15-0.278,0.872-0.437,1.33C378.347,48.099,377.977,47.836,377.606,47.574z"/>
</g>
</svg>
